# AST/ASF file generated using VICON BodyLanguage
# -----------------------------------------------
:version 1.10
:name VICON
:units
  mass 1.0
  length 0.45
  angle deg
:documentation
   .ast/.asf automatically generated from VICON data using
   VICON BodyBuilder and BodyLanguage model FoxedUp or BRILLIANT.MOD
:root
   order TX TY TZ RX RY RZ
   axis XYZ
   position 0 0 0  
   orientation 0 0 0 
:bonedata
  begin
     id 1 
     name lhipjoint
     direction 0.567725 -0.736092 0.368589 
     length 2.42353 
     axis 0 0 0  XYZ
  end
  begin
     id 2 
     name lfemur
     direction 0.34202 -0.939693 0  
     length 7.24894  
     axis 0 0 20  XYZ
    dof rx ry rz
    limits (-160.0 20.0)
           (-70.0 70.0)
           (-60.0 70.0)
  end
  begin
     id 3 
     name ltibia
     direction 0.34202 -0.939693 0   
     length 7.6997   
     axis 0 0 20   XYZ
    dof rx
    limits (-10.0 170.0)
  end
  begin
     id 4 
     name lfoot
     direction 0.100767 -0.276854 0.955614   
     length 2.37556   
     axis -90 7.62852e-016 20   XYZ
    dof rx rz
    limits (-45.0 90.0)
           (-70.0 20.0)
  end
  begin
     id 5 
     name ltoes
     direction 1.53592e-011 -4.21894e-011 1   
     length 1.18363   
     axis -90 7.62852e-016 20   XYZ
    dof rx
    limits (-90.0 20.0)
  end
  begin
     id 6 
     name rhipjoint
     direction -0.556459 -0.742938 0.372017   
     length 2.4012  
     axis 0 0 0  XYZ 
  end
  begin
     id 7 
     name rfemur
     direction -0.34202 -0.939693 0   
     length 7.5119   
     axis 0 0 -20   XYZ
    dof rx ry rz
    limits (-160.0 20.0)
           (-70.0 70.0)
           (-70.0 60.0)
  end
  begin
     id 8 
     name rtibia
     direction -0.34202 -0.939693 0   
     length 7.50155   
     axis 0 0 -20   XYZ
    dof rx
    limits (-10.0 170.0)
 end
 begin
     id 9 
     name rfoot
     direction -0.118427 -0.325376 0.938139   
     length 2.32487  
     axis -90 -7.62852e-016 -20   XYZ
    dof rx rz
    limits (-45.0 90.0)
           (-20.0 70.0)
  end
  begin
     id 10 
     name rtoes
     direction -1.53525e-011 -4.21868e-011 1   
     length 1.15233   
     axis -90 -7.62852e-016 -20   XYZ
    dof rx
    limits (-90.0 20.0)
  end
  begin
     id 11 
     name lowerback
     direction 0.0287568 0.999577 -0.00434502   
     length 2.15243   
     axis 0 0 0   XYZ
    dof rx ry rz
    limits (-20.0 45.0)
           (-30.0 30.0)
           (-30.0 30.0)
  end
  begin
     id 12 
     name upperback
     direction 0.0294009 0.99956 0.00404628   
     length 2.15427   
     axis 0 0 0   XYZ
    dof rx ry rz
    limits (-20.0 45.0)
           (-30.0 30.0)
           (-30.0 30.0)
  end
  begin
     id 13 
     name thorax
     direction 0.0151014 0.999868 0.0059419   
     length 2.14898   
     axis 0 0 0   XYZ
    dof rx ry rz
    limits (-20.0 45.0)
           (-30.0 30.0)
           (-30.0 30.0)
  end
  begin
     id 14 
     name lowerneck
     direction -0.0249197 0.989906 0.139515   
     length 1.6861   
     axis 0 0 0   XYZ
    dof rx ry rz
    limits (-20.0 45.0)
           (-30.0 30.0)
           (-30.0 30.0)
  end
  begin
     id 15 
     name upperneck
     direction 0.0438463 0.988795 -0.142693   
     length 1.71276   
     axis 0 0 0   XYZ
    dof rx ry rz
    limits (-20.0 45.0)
           (-30.0 30.0)
           (-30.0 30.0)
  end
  begin
     id 16
     name head
     direction 0.0148499 0.997845 -0.0639186  
     length 1.7209  
     axis 0 0 0   XYZ
    dof rx ry rz
    limits (-20.0 45.0)
           (-30.0 30.0)
           (-30.0 30.0)
  end
  begin
     id 17 
     name lclavicle
     direction 0.940298 0.323464 -0.105876  
     length 3.9048  
     axis 0 0 0   XYZ
    dof ry rz
    limits (-20.0 10.0)
           (0.0 20.0)
  end
  begin
     id 18 
     name lhumerus
     direction 1 -4.48954e-011 -4.9675e-028   
     length 4.6851   
     axis 180 -30 -90   XYZ
    dof rx ry rz
    limits (-60.0 90.0)
           (-90.0 90.0)
           (-90.0 90.0)
  end
  begin
     id 19
     name lradius
     direction 1 -4.48992e-011 -1.03359e-026   
     length 3.39626   
     axis 180 -30 -90   XYZ
    dof rx
    limits (-10.0 170.0)
  end
  begin
     id 20
     name lwrist
     direction 1 -4.48906e-011 -1.67336e-026   
     length 1.69813   
     axis 9.90442e-015 90 90   XYZ
    dof ry
    limits (-180.0 0.0)
 end
  begin
     id 21 
     name lhand
     direction 1 -4.49006e-011 -3.34673e-026   
     length 0.486078   
     axis 2.1355e-014 90 90   XYZ
    dof rx rz
    limits (-90.0 90.0)
           (-45.0 45.0)
  end
  begin
     id 22 
     name lfingers
     direction 1 -4.48992e-011 -6.69345e-026   
     length 0.391889   
     axis 4.27099e-014 90 90   XYZ
    dof rx
    limits (0.0 90.0)
  end
  begin
     id 23
     name lthumb
     direction 0.707107 -6.34926e-011 0.707107   
     length 0.562676   
     axis -90 45 2.85299e-015   XYZ
    dof rx rz
    limits (-45.0 45.0)
           (-45.0 45.0)
  end
  begin
     id 24 
     name rclavicle
     direction -0.882459 0.414895 -0.221648   
     length 3.44646  
     axis 0 0 0   XYZ 
    dof ry rz
    limits (-10.0 20.0)
           (-20.0 0.0)
  end
  begin
     id 25 
     name rhumerus
     direction -1 -4.48962e-011 -2.37984e-027  
     length 5.55576   
     axis 180 30 90   XYZ
    dof rx ry rz
    limits (-90.0 60.0)
           (-90.0 90.0)
           (-90.0 90.0)
  end
  begin
     id 26 
     name rradius
     direction -1 -4.48982e-011 -6.86791e-027   
     length 3.32774   
     axis 180 30 90   XYZ
    dof rx
    limits (-10.0 170.0)
  end
  begin
     id 27 
     name rwrist
     direction -1 -4.48961e-011 -1.67336e-026   
     length 1.66387   
     axis 9.90442e-015 -90 -90   XYZ
    dof ry
    limits (-180.0 0.0)
  end
  begin
     id 28
     name rhand
     direction -1 -4.4897e-011 -3.34673e-026   
     length 0.507628   
     axis 2.1355e-014 -90 -90   XYZ
    dof rx rz
    limits (-90.0 90.0)
           (-45.0 45.0)
  end
  begin
     id 29
     name rfingers
     direction -1 -4.48854e-011 -6.69345e-026   
     length 0.409263   
     axis 4.27099e-014 -90 -90   XYZ
    dof rx
    limits (0.0 90.0)
  end
  begin
     id 30
     name rthumb
     direction -0.707107 -6.34913e-011 0.707107   
     length 0.587622   
     axis -90 -45 -2.85299e-015   XYZ
    dof rx rz
    limits (-45.0 45.0)
           (-45.0 45.0)
  end
:hierarchy
  begin
    root lhipjoint rhipjoint lowerback
    lhipjoint lfemur
    lfemur ltibia
    ltibia lfoot
    lfoot ltoes
    rhipjoint rfemur
    rfemur rtibia
    rtibia rfoot
    rfoot rtoes
    lowerback upperback
    upperback thorax
    thorax lowerneck lclavicle rclavicle
    lowerneck upperneck
    upperneck head
    lclavicle lhumerus
    lhumerus lradius
    lradius lwrist
    lwrist lhand lthumb
    lhand lfingers
    rclavicle rhumerus
    rhumerus rradius
    rradius rwrist
    rwrist rhand rthumb
    rhand rfingers
  end

#!OML:ASF E:\motion texture\Top Level 1\Subject 1\Session 1\male.ASF
:FULLY-SPECIFIED
:DEGREES
65
root 23.5611 17.3368 4.79605 88.7873 -80.7998 -89.8965
lowerback 2.9825 -0.94954 6.62837
upperback -1.58027 -0.967418 4.56016
thorax -3.34272 -0.630351 1.06571
lowerneck -19.4206 -4.14306 -6.16648
upperneck 15.9542 -5.34109 6.77148
head 8.51786 -2.21668 2.6001
rclavicle -8.77137e-015 3.81667e-014
rhumerus -28.0518 16.2645 -96.109
rradius 63.6861
rwrist -11.0109
rhand -11.5039 -21.8583
rfingers 7.12502
rthumb 14.5351 -51.3291
lclavicle -8.77137e-015 3.81667e-014
lhumerus -37.372 -2.15594 85.8522
lradius 27.422
lwrist -25.1688
lhand -4.79297 10.4102
lfingers 7.12502
lthumb 20.9923 39.2941
rfemur -20.9224 -0.619559 33.5954
rtibia 36.9044
rfoot -370.164 -1.77138
rtoes 18.8968
lfemur -20.8749 6.5988 -1.36195
ltibia 74.2296
lfoot 36.731 -12.2748
ltoes 20.0442
66
root 23.4476 17.3497 4.7664 89.2398 -80.3199 -90.8722
lowerback 3.62634 -0.770401 7.11098
upperback -1.39122 -0.65568 4.64053
thorax -3.50666 -0.488388 0.87192
lowerneck -19.4046 -4.2673 -6.22743
upperneck 15.7909 -5.48192 6.76464
head 8.47119 -2.28809 2.58785
rclavicle 5.34234e-015 -1.07344e-014
rhumerus -25.6851 18.7318 -96.447
rradius 64.6947
rwrist -11.621
rhand -11.7257 -22.6203
rfingers 7.12502
rthumb 14.3213 -52.1064
lclavicle 5.34234e-015 -1.07344e-014
lhumerus -37.9685 -0.2773 83.9145
lradius 26.254
lwrist -26.8338
lhand -4.99998 10.3069
lfingers 7.12502
lthumb 20.7934 39.2127
rfemur -19.5127 -0.769133 34.2346
rtibia 36.1718
rfoot -370.425 -1.6896
rtoes 18.6186
lfemur -24.2916 7.75033 -0.760883
ltibia 78.3501
lfoot 35.9859 -12.755
ltoes 20.1339
67
root 23.3341 17.3662 4.73537 89.3441 -80.011 -91.3824
lowerback 4.14766 -0.599959 7.37274
upperback -1.25737 -0.369445 4.68731
thorax -3.6536 -0.354341 0.762041
lowerneck -19.3357 -4.39548 -6.29943
upperneck 15.6511 -5.63379 6.77425
head 8.42508 -2.36497 2.58226
rclavicle -6.70898e-016 3.18055e-014
rhumerus -23.2829 21.1365 -96.5043
rradius 65.6207
rwrist -12.1233
rhand -11.9995 -23.3159
rfingers 7.12502
rthumb 14.0575 -52.8205
lclavicle -6.70898e-016 3.18055e-014
lhumerus -38.6592 1.41127 81.9824
lradius 25.288
lwrist -28.3049
lhand -5.27625 10.2085
lfingers 7.12502
lthumb 20.528 39.1432
rfemur -18.2196 -0.878908 34.6754
rtibia 35.4079
rfoot -370.674 -1.70908
rtoes 18.3413
lfemur -27.8994 8.91866 -0.493555
ltibia 82.5254
lfoot 35.5655 -30.7599
ltoes 19.0247
68
root 23.22 17.3875 4.70418 89.4064 -79.794 -91.7254
lowerback 4.53641 -0.419027 7.52222
upperback -1.17602 -0.0831335 4.70986
thorax -3.77761 -0.217893 0.684957
lowerneck -19.2399 -4.53222 -6.38571
upperneck 15.5501 -5.80423 6.8126
head 8.39032 -2.44919 2.5868
rclavicle 3.32964e-015 -6.32135e-014
rhumerus -20.8335 23.4035 -96.2915
rradius 66.456
rwrist -12.5389
rhand -12.2328 -24.0093
rfingers 7.12502
rthumb 13.8326 -53.5294
lclavicle 3.32964e-015 -6.32135e-014
lhumerus -39.4045 2.87362 80.0731
lradius 24.4971
lwrist -29.5632
lhand -5.54767 10.0687
lfingers 7.12502
lthumb 20.2671 39.0313
rfemur -17.0699 -0.917291 35.0179
rtibia 34.6621
rfoot -370.926 -1.79038
rtoes 18.1057
lfemur -31.6592 10.1107 -0.474323
ltibia 86.2555
lfoot 34.4449 -49.1323
ltoes 17.5603
69
root 23.104 17.4134 4.67508 89.5299 -79.5883 -92.0111
lowerback 4.77836 -0.222052 7.67976
upperback -1.13425 0.21242 4.71816
thorax -3.85808 -0.0768433 0.584776
lowerneck -19.1321 -4.68111 -6.48747
upperneck 15.486 -5.99774 6.88422
head 8.36948 -2.54217 2.60237
rclavicle 1.01877e-015 -6.32135e-014
rhumerus -18.3363 25.5049 -95.8258
rradius 67.1911
rwrist -12.8892
rhand -12.4674 -24.6899
rfingers 7.12502
rthumb 13.6066 -54.2252
lclavicle 1.01877e-015 -6.32135e-014
lhumerus -40.1775 4.06646 78.2263
lradius 23.8929
lwrist -30.5193
lhand -5.7184 9.95534
lfingers 7.12502
lthumb 20.103 38.9353
rfemur -16.0535 -0.903192 35.3506
rtibia 33.9399
rfoot -371.175 -1.89329
rtoes 17.8895
lfemur -35.5297 11.3069 -0.615036
ltibia 88.6554
lfoot 33.7179 -67.7705
ltoes 16.2246
70
root 22.986 17.4431 4.64954 90.008 -79.3319 -92.5522
lowerback 4.89712 0.00374776 7.92857
upperback -1.12119 0.539782 4.7259
thorax -3.89516 0.0778894 0.429509
lowerneck -19.0208 -4.84166 -6.6069
upperneck 15.4459 -6.21012 6.98206
head 8.35939 -2.6426 2.62729
rclavicle 2.73329e-015 4.37326e-015
rhumerus -15.7868 27.4063 -95.1291
rradius 67.8041
rwrist -13.1906
rhand -12.6755 -25.3707
rfingers 7.12502
rthumb 13.406 -54.9194
lclavicle 2.73329e-015 4.37326e-015
lhumerus -40.9596 5.00186 76.4632
lradius 23.4639
lwrist -31.1598
lhand -5.75683 9.84912
lfingers 7.12502
lthumb 20.0661 38.8329
rfemur -15.149 -0.836487 35.7426
rtibia 33.2474
rfoot -371.415 -1.96207
rtoes 17.7194
lfemur -39.4566 12.5253 -0.83587
ltibia 89.3186
lfoot 45.3192 -86.4479
ltoes 15.4011
71
root 22.8654 17.476 4.62801 90.6684 -79.0209 -93.2349
lowerback 4.96289 0.247134 8.28067
upperback -1.12481 0.891618 4.72863
thorax -3.91439 0.24191 0.209901
lowerneck -18.9272 -5.01223 -6.7312
upperneck 15.4377 -6.43989 7.09622
head 8.36568 -2.74945 2.65599
rclavicle -1.78906e-015 -4.6118e-014
rhumerus -13.2063 29.0775 -94.242
rradius 68.2906
rwrist -13.4708
rhand -12.8536 -26.0515
rfingers 7.12502
rthumb 13.2343 -55.6114
lclavicle -1.78906e-015 -4.6118e-014
lhumerus -41.7523 5.67805 74.7998
lradius 23.206
lwrist -31.4629
lhand -5.6457 9.76684
lfingers 7.12502
lthumb 20.1729 38.7394
rfemur -14.2725 -0.765862 36.1883
rtibia 32.5527
rfoot -371.628 -1.99138
rtoes 17.5557
lfemur -43.3573 13.7049 -1.11755
ltibia 88.2937
lfoot 204.28 -74.5164
ltoes 14.98
72
root 22.7424 17.5111 4.61054 91.6301 -78.6704 -94.2341
lowerback 5.01833 0.502815 8.7187
upperback -1.11419 1.26208 4.72739
thorax -3.90587 0.413669 -0.0624021
lowerneck -18.8528 -5.18351 -6.8628
upperneck 15.4362 -6.67044 7.22155
head 8.37893 -2.85554 2.68923
rclavicle 9.69075e-016 -5.88403e-014
rhumerus -10.6109 30.5458 -93.206
rradius 68.6568
rwrist -13.7362
rhand -12.9973 -26.6867
rfingers 7.12502
rthumb 13.0958 -56.2556
lclavicle 9.69075e-016 -5.88403e-014
lhumerus -42.5503 6.14001 73.245
lradius 23.1093
lwrist -31.4199
lhand -5.42752 9.67572
lfingers 7.12502
lthumb 20.3826 38.626
rfemur -13.3621 -0.682013 36.6661
rtibia 31.8555
rfoot -371.804 -1.9806
rtoes 17.3923
lfemur -47.143 14.8426 -1.4529
ltibia 86.0169
lfoot 205.093 -55.6225
ltoes 14.8429
73
root 22.6169 17.5466 4.59663 92.7444 -78.3456 -95.4092
lowerback 5.08674 0.765478 9.16545
upperback -1.09679 1.64372 4.70202
thorax -3.89032 0.591152 -0.365096
lowerneck -18.7975 -5.35258 -6.98757
upperneck 15.45 -6.90191 7.35527
head 8.40148 -2.96033 2.72371
rclavicle 1.11444e-014 5.12864e-014
rhumerus -8.04884 31.7828 -92.0719
rradius 68.9192
rwrist -14.0062
rhand -13.072 -27.2229
rfingers 7.12502
rthumb 13.0238 -56.7963
lclavicle 1.11444e-014 5.12864e-014
lhumerus -43.3679 6.40997 71.7886
lradius 23.1587
lwrist -31.1013
lhand -5.15255 9.57018
lfingers 7.12502
lthumb 20.6468 38.492
rfemur -12.4164 -0.593156 37.0967
rtibia 31.1624
rfoot -371.932 -1.94771
rtoes 17.2815
lfemur -50.8056 15.8854 -1.90112
ltibia 83.1867
lfoot 204.932 -36.6878
ltoes 14.8886
74
root 22.4896 17.5832 4.58555 94.1527 -78.0744 -96.9617
lowerback 5.23685 1.03987 9.57436
upperback -1.05831 2.04858 4.64788
thorax -3.89098 0.781179 -0.679838
lowerneck -18.7386 -5.5143 -7.10375
upperneck 15.4625 -7.12846 7.49929
head 8.42333 -3.06145 2.76088
rclavicle -1.05729e-014 3.97569e-014
rhumerus -5.56137 32.7856 -90.8935
rradius 69.0983
rwrist -14.31
rhand -13.0417 -27.672
rfingers 7.12502
rthumb 13.053 -57.2436
lclavicle -1.05729e-014 3.97569e-014
lhumerus -44.2088 6.52607 70.4167
lradius 23.3235
lwrist -30.5743
lhand -4.86077 9.4199
lfingers 7.12502
lthumb 20.9272 38.311
rfemur -11.3737 -0.466558 37.4457
rtibia 30.4821
rfoot -372.016 -1.90554
rtoes 17.2466
lfemur -54.2392 16.8418 -2.45202
ltibia 80.6134
lfoot 204.891 -17.7426
ltoes 15.0933
